<mxfile host="app.diagrams.net" modified="2021-09-28T09:40:10.717Z" agent="5.0 (Windows)" etag="pODBHxfzYxFIxQ8w449_" version="15.3.1" type="github">
  <diagram id="6SXi7AUZwmpJSWRMX00l" name="Page-1">
    <mxGraphModel dx="1422" dy="792" grid="1" gridSize="10" guides="1" tooltips="1" connect="1" arrows="1" fold="1" page="1" pageScale="1" pageWidth="827" pageHeight="1169" math="0" shadow="0">
      <root>
        <mxCell id="0" />
        <mxCell id="1" parent="0" />
        <mxCell id="ttFTvr3IXY-sHR55pd6b-3" style="edgeStyle=orthogonalEdgeStyle;rounded=0;orthogonalLoop=1;jettySize=auto;html=1;exitX=0.5;exitY=1;exitDx=0;exitDy=0;exitPerimeter=0;entryX=0.5;entryY=0;entryDx=0;entryDy=0;" edge="1" parent="1" source="ttFTvr3IXY-sHR55pd6b-1" target="ttFTvr3IXY-sHR55pd6b-2">
          <mxGeometry relative="1" as="geometry" />
        </mxCell>
        <mxCell id="ttFTvr3IXY-sHR55pd6b-1" value="&lt;font face=&quot;Comic Sans MS&quot;&gt;开始&lt;/font&gt;" style="strokeWidth=1;html=1;shape=mxgraph.flowchart.terminator;whiteSpace=wrap;" vertex="1" parent="1">
          <mxGeometry x="257.5" y="40" width="90" height="40" as="geometry" />
        </mxCell>
        <mxCell id="ttFTvr3IXY-sHR55pd6b-2" value="&lt;font style=&quot;font-size: 12px&quot; face=&quot;Comic Sans MS&quot;&gt;加载初始化：加载配置、初始化日志、初始化swagger、绑定路由&lt;/font&gt;" style="rounded=1;whiteSpace=wrap;html=1;" vertex="1" parent="1">
          <mxGeometry x="112.5" y="120" width="380" height="40" as="geometry" />
        </mxCell>
        <mxCell id="ttFTvr3IXY-sHR55pd6b-4" value="" style="verticalLabelPosition=bottom;verticalAlign=top;html=1;strokeWidth=2;shape=mxgraph.arrows2.arrow;dy=0.6;dx=40;notch=0;rotation=90;" vertex="1" parent="1">
          <mxGeometry x="-111.25" y="573.75" width="822.5" height="25" as="geometry" />
        </mxCell>
        <mxCell id="ttFTvr3IXY-sHR55pd6b-5" value="" style="endArrow=classic;html=1;" edge="1" parent="1">
          <mxGeometry width="50" height="50" relative="1" as="geometry">
            <mxPoint x="40" y="240" as="sourcePoint" />
            <mxPoint x="290" y="240" as="targetPoint" />
          </mxGeometry>
        </mxCell>
        <mxCell id="ttFTvr3IXY-sHR55pd6b-6" value="request" style="edgeLabel;html=1;align=center;verticalAlign=middle;resizable=0;points=[];fontSize=14;fontFamily=Comic Sans MS;" vertex="1" connectable="0" parent="ttFTvr3IXY-sHR55pd6b-5">
          <mxGeometry x="-0.08" relative="1" as="geometry">
            <mxPoint as="offset" />
          </mxGeometry>
        </mxCell>
        <mxCell id="ttFTvr3IXY-sHR55pd6b-7" value="" style="endArrow=classic;html=1;" edge="1" parent="1">
          <mxGeometry width="50" height="50" relative="1" as="geometry">
            <mxPoint x="306" y="280" as="sourcePoint" />
            <mxPoint x="506" y="280" as="targetPoint" />
          </mxGeometry>
        </mxCell>
        <mxCell id="ttFTvr3IXY-sHR55pd6b-11" value="/calc/result" style="edgeLabel;html=1;align=center;verticalAlign=middle;resizable=0;points=[];fontSize=14;fontFamily=Comic Sans MS;" vertex="1" connectable="0" parent="ttFTvr3IXY-sHR55pd6b-7">
          <mxGeometry x="-0.12" y="1" relative="1" as="geometry">
            <mxPoint as="offset" />
          </mxGeometry>
        </mxCell>
        <mxCell id="ttFTvr3IXY-sHR55pd6b-19" style="edgeStyle=orthogonalEdgeStyle;rounded=0;orthogonalLoop=1;jettySize=auto;html=1;exitX=0.5;exitY=1;exitDx=0;exitDy=0;entryX=0.5;entryY=0;entryDx=0;entryDy=0;fontFamily=Comic Sans MS;fontSize=14;" edge="1" parent="1" source="ttFTvr3IXY-sHR55pd6b-14" target="ttFTvr3IXY-sHR55pd6b-17">
          <mxGeometry relative="1" as="geometry" />
        </mxCell>
        <mxCell id="ttFTvr3IXY-sHR55pd6b-23" value="获取请求参数" style="edgeLabel;html=1;align=center;verticalAlign=middle;resizable=0;points=[];fontSize=14;fontFamily=Comic Sans MS;" vertex="1" connectable="0" parent="ttFTvr3IXY-sHR55pd6b-19">
          <mxGeometry x="-0.136" y="10" relative="1" as="geometry">
            <mxPoint x="-10" y="3" as="offset" />
          </mxGeometry>
        </mxCell>
        <mxCell id="ttFTvr3IXY-sHR55pd6b-14" value="controller.CalcResult" style="rounded=1;whiteSpace=wrap;html=1;fontFamily=Comic Sans MS;fontSize=14;strokeWidth=1;" vertex="1" parent="1">
          <mxGeometry x="520" y="260" width="170" height="40" as="geometry" />
        </mxCell>
        <mxCell id="ttFTvr3IXY-sHR55pd6b-21" style="edgeStyle=orthogonalEdgeStyle;rounded=0;orthogonalLoop=1;jettySize=auto;html=1;exitX=0.5;exitY=1;exitDx=0;exitDy=0;entryX=0.5;entryY=0;entryDx=0;entryDy=0;fontFamily=Comic Sans MS;fontSize=14;" edge="1" parent="1" source="ttFTvr3IXY-sHR55pd6b-17" target="ttFTvr3IXY-sHR55pd6b-20">
          <mxGeometry relative="1" as="geometry" />
        </mxCell>
        <mxCell id="ttFTvr3IXY-sHR55pd6b-22" value="预处理exp" style="edgeLabel;html=1;align=center;verticalAlign=middle;resizable=0;points=[];fontSize=14;fontFamily=Comic Sans MS;" vertex="1" connectable="0" parent="ttFTvr3IXY-sHR55pd6b-21">
          <mxGeometry x="0.1652" y="20" relative="1" as="geometry">
            <mxPoint x="-20" y="-5" as="offset" />
          </mxGeometry>
        </mxCell>
        <mxCell id="ttFTvr3IXY-sHR55pd6b-28" style="edgeStyle=orthogonalEdgeStyle;rounded=0;orthogonalLoop=1;jettySize=auto;html=1;exitX=1;exitY=0.5;exitDx=0;exitDy=0;entryX=0.5;entryY=0;entryDx=0;entryDy=0;fontFamily=Comic Sans MS;fontSize=14;" edge="1" parent="1" source="ttFTvr3IXY-sHR55pd6b-17" target="ttFTvr3IXY-sHR55pd6b-27">
          <mxGeometry relative="1" as="geometry" />
        </mxCell>
        <mxCell id="ttFTvr3IXY-sHR55pd6b-17" value="非空校验exp" style="rounded=1;whiteSpace=wrap;html=1;fontFamily=Comic Sans MS;fontSize=14;strokeWidth=1;" vertex="1" parent="1">
          <mxGeometry x="520" y="362.5" width="170" height="40" as="geometry" />
        </mxCell>
        <mxCell id="ttFTvr3IXY-sHR55pd6b-30" style="edgeStyle=orthogonalEdgeStyle;rounded=0;orthogonalLoop=1;jettySize=auto;html=1;exitX=1;exitY=0.5;exitDx=0;exitDy=0;entryX=0.5;entryY=0;entryDx=0;entryDy=0;fontFamily=Comic Sans MS;fontSize=14;" edge="1" parent="1" source="ttFTvr3IXY-sHR55pd6b-20" target="ttFTvr3IXY-sHR55pd6b-27">
          <mxGeometry relative="1" as="geometry" />
        </mxCell>
        <mxCell id="ttFTvr3IXY-sHR55pd6b-34" style="edgeStyle=orthogonalEdgeStyle;rounded=0;orthogonalLoop=1;jettySize=auto;html=1;exitX=0.5;exitY=1;exitDx=0;exitDy=0;entryX=0.5;entryY=0;entryDx=0;entryDy=0;fontFamily=Comic Sans MS;fontSize=14;" edge="1" parent="1" source="ttFTvr3IXY-sHR55pd6b-20" target="ttFTvr3IXY-sHR55pd6b-32">
          <mxGeometry relative="1" as="geometry" />
        </mxCell>
        <mxCell id="ttFTvr3IXY-sHR55pd6b-35" value="转后缀表达式" style="edgeLabel;html=1;align=center;verticalAlign=middle;resizable=0;points=[];fontSize=14;fontFamily=Comic Sans MS;" vertex="1" connectable="0" parent="ttFTvr3IXY-sHR55pd6b-34">
          <mxGeometry x="0.0333" y="10" relative="1" as="geometry">
            <mxPoint x="-15" y="-2" as="offset" />
          </mxGeometry>
        </mxCell>
        <mxCell id="ttFTvr3IXY-sHR55pd6b-20" value="AModel.PretreatExp(exp)" style="rounded=1;whiteSpace=wrap;html=1;fontFamily=Comic Sans MS;fontSize=14;strokeWidth=1;" vertex="1" parent="1">
          <mxGeometry x="520" y="460" width="170" height="40" as="geometry" />
        </mxCell>
        <mxCell id="ttFTvr3IXY-sHR55pd6b-50" style="edgeStyle=orthogonalEdgeStyle;rounded=0;orthogonalLoop=1;jettySize=auto;html=1;exitX=0.5;exitY=1;exitDx=0;exitDy=0;fontFamily=Comic Sans MS;fontSize=14;" edge="1" parent="1" source="ttFTvr3IXY-sHR55pd6b-27">
          <mxGeometry relative="1" as="geometry">
            <mxPoint x="40" y="879" as="targetPoint" />
            <Array as="points">
              <mxPoint x="1000" y="879" />
            </Array>
          </mxGeometry>
        </mxCell>
        <mxCell id="ttFTvr3IXY-sHR55pd6b-27" value="异常：记录日志，返回code.msg" style="rounded=1;whiteSpace=wrap;html=1;fontFamily=Comic Sans MS;fontSize=14;strokeWidth=1;" vertex="1" parent="1">
          <mxGeometry x="880" y="760" width="240" height="40" as="geometry" />
        </mxCell>
        <mxCell id="ttFTvr3IXY-sHR55pd6b-31" value="异常" style="edgeLabel;html=1;align=center;verticalAlign=middle;resizable=0;points=[];fontSize=14;fontFamily=Comic Sans MS;" vertex="1" connectable="0" parent="1">
          <mxGeometry x="931" y="676" as="geometry">
            <mxPoint x="65" y="45" as="offset" />
          </mxGeometry>
        </mxCell>
        <mxCell id="ttFTvr3IXY-sHR55pd6b-36" style="edgeStyle=orthogonalEdgeStyle;rounded=0;orthogonalLoop=1;jettySize=auto;html=1;exitX=1;exitY=0.5;exitDx=0;exitDy=0;entryX=0.5;entryY=0;entryDx=0;entryDy=0;fontFamily=Comic Sans MS;fontSize=14;" edge="1" parent="1" source="ttFTvr3IXY-sHR55pd6b-32" target="ttFTvr3IXY-sHR55pd6b-27">
          <mxGeometry relative="1" as="geometry" />
        </mxCell>
        <mxCell id="ttFTvr3IXY-sHR55pd6b-38" style="edgeStyle=orthogonalEdgeStyle;rounded=0;orthogonalLoop=1;jettySize=auto;html=1;exitX=0.5;exitY=1;exitDx=0;exitDy=0;entryX=0.5;entryY=0;entryDx=0;entryDy=0;fontFamily=Comic Sans MS;fontSize=14;" edge="1" parent="1" source="ttFTvr3IXY-sHR55pd6b-32" target="ttFTvr3IXY-sHR55pd6b-37">
          <mxGeometry relative="1" as="geometry" />
        </mxCell>
        <mxCell id="ttFTvr3IXY-sHR55pd6b-39" value="后缀表达式计算结果" style="edgeLabel;html=1;align=center;verticalAlign=middle;resizable=0;points=[];fontSize=14;fontFamily=Comic Sans MS;" vertex="1" connectable="0" parent="ttFTvr3IXY-sHR55pd6b-38">
          <mxGeometry x="0.0667" y="9" relative="1" as="geometry">
            <mxPoint x="-14" as="offset" />
          </mxGeometry>
        </mxCell>
        <mxCell id="ttFTvr3IXY-sHR55pd6b-32" value="AModel.ToSuffixExp(expElems)" style="rounded=1;whiteSpace=wrap;html=1;fontFamily=Comic Sans MS;fontSize=14;strokeWidth=1;" vertex="1" parent="1">
          <mxGeometry x="490" y="560" width="230" height="40" as="geometry" />
        </mxCell>
        <mxCell id="ttFTvr3IXY-sHR55pd6b-42" style="edgeStyle=orthogonalEdgeStyle;rounded=0;orthogonalLoop=1;jettySize=auto;html=1;exitX=1;exitY=0.5;exitDx=0;exitDy=0;fontFamily=Comic Sans MS;fontSize=14;" edge="1" parent="1" source="ttFTvr3IXY-sHR55pd6b-37">
          <mxGeometry relative="1" as="geometry">
            <mxPoint x="1000" y="760" as="targetPoint" />
          </mxGeometry>
        </mxCell>
        <mxCell id="ttFTvr3IXY-sHR55pd6b-45" style="edgeStyle=orthogonalEdgeStyle;rounded=0;orthogonalLoop=1;jettySize=auto;html=1;exitX=0.5;exitY=1;exitDx=0;exitDy=0;fontFamily=Comic Sans MS;fontSize=14;" edge="1" parent="1" source="ttFTvr3IXY-sHR55pd6b-37" target="ttFTvr3IXY-sHR55pd6b-44">
          <mxGeometry relative="1" as="geometry" />
        </mxCell>
        <mxCell id="ttFTvr3IXY-sHR55pd6b-37" value="AModel.CalcResult(suffixExp)" style="rounded=1;whiteSpace=wrap;html=1;fontFamily=Comic Sans MS;fontSize=14;strokeWidth=1;" vertex="1" parent="1">
          <mxGeometry x="490" y="660" width="230" height="40" as="geometry" />
        </mxCell>
        <mxCell id="ttFTvr3IXY-sHR55pd6b-49" style="edgeStyle=orthogonalEdgeStyle;rounded=0;orthogonalLoop=1;jettySize=auto;html=1;exitX=0.5;exitY=1;exitDx=0;exitDy=0;fontFamily=Comic Sans MS;fontSize=14;" edge="1" parent="1" source="ttFTvr3IXY-sHR55pd6b-44">
          <mxGeometry relative="1" as="geometry">
            <mxPoint x="40" y="880" as="targetPoint" />
            <Array as="points">
              <mxPoint x="605" y="880" />
              <mxPoint x="308" y="880" />
            </Array>
          </mxGeometry>
        </mxCell>
        <mxCell id="ttFTvr3IXY-sHR55pd6b-44" value="成功返回：code, msg, data" style="rounded=1;whiteSpace=wrap;html=1;fontFamily=Comic Sans MS;fontSize=14;strokeWidth=1;" vertex="1" parent="1">
          <mxGeometry x="490" y="760" width="230" height="40" as="geometry" />
        </mxCell>
        <mxCell id="ttFTvr3IXY-sHR55pd6b-51" value="response" style="text;html=1;align=center;verticalAlign=middle;resizable=0;points=[];autosize=1;strokeColor=none;fillColor=none;fontSize=14;fontFamily=Comic Sans MS;" vertex="1" parent="1">
          <mxGeometry x="125" y="859" width="70" height="20" as="geometry" />
        </mxCell>
        <mxCell id="ttFTvr3IXY-sHR55pd6b-53" value="" style="endArrow=classic;startArrow=none;html=1;fontFamily=Comic Sans MS;fontSize=14;entryX=0;entryY=0.5;entryDx=0;entryDy=0;exitX=1;exitY=0.5;exitDx=0;exitDy=0;" edge="1" parent="1" source="ttFTvr3IXY-sHR55pd6b-55">
          <mxGeometry width="50" height="50" relative="1" as="geometry">
            <mxPoint x="720" y="779.5" as="sourcePoint" />
            <mxPoint x="880" y="779.5" as="targetPoint" />
          </mxGeometry>
        </mxCell>
        <mxCell id="ttFTvr3IXY-sHR55pd6b-55" value="互斥返回" style="text;html=1;align=center;verticalAlign=middle;resizable=0;points=[];autosize=1;strokeColor=none;fillColor=none;fontSize=14;fontFamily=Comic Sans MS;" vertex="1" parent="1">
          <mxGeometry x="766" y="770" width="70" height="20" as="geometry" />
        </mxCell>
        <mxCell id="ttFTvr3IXY-sHR55pd6b-56" value="" style="endArrow=none;startArrow=classic;html=1;fontFamily=Comic Sans MS;fontSize=14;entryX=0;entryY=0.5;entryDx=0;entryDy=0;exitX=1;exitY=0.5;exitDx=0;exitDy=0;" edge="1" parent="1" target="ttFTvr3IXY-sHR55pd6b-55">
          <mxGeometry width="50" height="50" relative="1" as="geometry">
            <mxPoint x="720" y="779.5" as="sourcePoint" />
            <mxPoint x="880" y="779.5" as="targetPoint" />
          </mxGeometry>
        </mxCell>
      </root>
    </mxGraphModel>
  </diagram>
</mxfile>
